
<svg width="100" height="100" xmlns="http://www.w3.org/2000/svg">
  <g fill="#FF758F" fill-opacity="0.1">
    <path d="M25,25 C25,15 15,5 5,5 C-5,5 -15,15 -15,25 C-15,35 -5,45 5,45 C15,45 25,35 25,25 Z" transform="translate(50 25)"/>
    <path d="M25,25 C25,15 15,5 5,5 C-5,5 -15,15 -15,25 C-15,35 -5,45 5,45 C15,45 25,35 25,25 Z" transform="translate(15 65)"/>
    <path d="M25,25 C25,15 15,5 5,5 C-5,5 -15,15 -15,25 C-15,35 -5,45 5,45 C15,45 25,35 25,25 Z" transform="translate(85 75)"/>
  </g>
</svg>
